<svg width="800" height="800" viewBox="0 0 800 800" fill="none" xmlns="http://www.w3.org/2000/svg">
<g clip-path="url(#clip0)">
<rect width="800" height="800" fill="#F0F0F0"/>
<rect width="800" height="800" fill="#F0F0F0"/>
<path d="M48.5032 724.048C421.654 763.856 29.7319 465.025 781.341 621.46C668.889 712.874 587.639 770.088 561.071 787.268L48.5032 724.048Z" fill="#F0F0F0"/>
<path d="M339.008 -19.2572C75.1186 2.8705 665.393 330.154 40.9643 270.728C-5.48754 123.029 -28.2868 28.3624 -33.8799 -0.50868L339.008 -19.2572Z" fill="#F0F0F0"/>
<path d="M374.664 476.534L116.146 495.323L239.6 255.305L374.664 476.534Z" fill="#C4DDCA"/>
<path d="M484 203C484 230.614 461.614 253 434 253C406.386 253 384 230.614 384 203C384 175.386 406.386 153 434 153C461.614 153 484 175.386 484 203Z" stroke="#C4DDCA" stroke-width="30"/>
<path d="M675 435C675 462.614 652.614 485 625 485C597.386 485 575 462.614 575 435C575 407.386 597.386 385 625 385C652.614 385 675 407.386 675 435Z" stroke="#98C9A3" stroke-width="30"/>
<path d="M490.867 376.363L706.601 533.14L481.666 642.889L490.867 376.363Z" fill="#C4DDCA"/>
<circle cx="321" cy="284" r="125" fill="#98C9A3"/>
<path d="M643 403C643 513.457 553.457 603 443 603C332.543 603 243 513.457 243 403C243 292.543 332.543 203 443 203C553.457 203 643 292.543 643 403Z" fill="#EDEEC9"/>
<circle cx="317" cy="495" r="125" fill="#98C9A3"/>
<g filter="url(#filter0_d)">
<rect x="530.493" y="344" width="118" height="256.493" rx="20" transform="rotate(90 530.493 344)" fill="#C2FCFC" fill-opacity="0.7"/>
</g>
<g filter="url(#filter1_d)">
<rect x="550.493" y="373" width="60" height="20" transform="rotate(90 550.493 373)" fill="#C2FCFC" fill-opacity="0.7"/>
</g>
<g filter="url(#filter2_d)">
<rect x="593.493" y="361" width="85" height="43.0143" rx="20" transform="rotate(90 593.493 361)" fill="#C2FCFC" fill-opacity="0.7"/>
</g>
<rect x="471.493" y="341" width="123" height="107" rx="5" transform="rotate(90 471.493 341)" fill="#98C9A3"/>
<rect x="460.493" y="347" width="111" height="84" rx="42" transform="rotate(90 460.493 347)" fill="#EDEEC9"/>
<path d="M404.253 360.6C404.253 359.827 404.493 359.2 404.973 358.72C405.453 358.267 406.079 358.04 406.853 358.04H430.253C431.026 358.04 431.626 358.253 432.053 358.68C432.479 359.133 432.693 359.747 432.693 360.52V374.56C432.693 376.187 431.999 377 430.613 377C429.253 377 428.573 376.187 428.573 374.56V363.12H420.893V373.76C420.893 375.387 420.199 376.2 418.813 376.2C417.453 376.2 416.773 375.387 416.773 373.76V363.12H406.853C406.079 363.12 405.453 362.893 404.973 362.44C404.493 361.987 404.253 361.373 404.253 360.6ZM404.253 384.338C404.253 383.618 404.453 383.018 404.853 382.538C405.279 382.084 405.879 381.858 406.653 381.858H430.533C431.306 381.858 431.893 382.084 432.293 382.538C432.693 383.018 432.893 383.618 432.893 384.338C432.893 385.058 432.693 385.658 432.293 386.138C431.893 386.618 431.306 386.858 430.533 386.858H406.653C405.879 386.858 405.279 386.618 404.853 386.138C404.453 385.658 404.253 385.058 404.253 384.338ZM424.533 400.494C424.533 403.214 423.853 405.227 422.493 406.534C421.159 407.867 419.119 408.534 416.373 408.534H406.613C405.893 408.534 405.319 408.321 404.893 407.894C404.493 407.467 404.293 406.881 404.293 406.134C404.293 405.441 404.506 404.867 404.933 404.414C405.359 403.987 405.919 403.774 406.613 403.774H407.493C406.453 403.321 405.639 402.601 405.053 401.614C404.466 400.654 404.173 399.534 404.173 398.254C404.173 396.947 404.439 395.761 404.973 394.694C405.506 393.627 406.239 392.787 407.173 392.174C408.106 391.561 409.146 391.254 410.293 391.254C411.733 391.254 412.866 391.614 413.693 392.334C414.519 393.081 415.119 394.281 415.493 395.934C415.866 397.587 416.053 399.867 416.053 402.774V403.774H416.973C418.279 403.774 419.226 403.494 419.813 402.934C420.426 402.374 420.733 401.467 420.733 400.214C420.733 399.441 420.613 398.654 420.373 397.854C420.159 397.054 419.839 396.107 419.413 395.014C419.066 394.321 418.893 393.814 418.893 393.494C418.893 393.014 419.066 392.614 419.413 392.294C419.759 392.001 420.213 391.854 420.773 391.854C421.226 391.854 421.613 391.961 421.933 392.174C422.279 392.414 422.599 392.801 422.893 393.334C423.399 394.267 423.799 395.374 424.093 396.654C424.386 397.961 424.533 399.241 424.533 400.494ZM407.773 399.254C407.773 400.587 408.213 401.667 409.093 402.494C409.999 403.347 411.159 403.774 412.573 403.774H413.413V403.054C413.413 401.267 413.333 399.881 413.173 398.894C413.013 397.907 412.733 397.201 412.333 396.774C411.933 396.347 411.386 396.134 410.693 396.134C409.839 396.134 409.133 396.427 408.573 397.014C408.039 397.627 407.773 398.374 407.773 399.254ZM424.533 424.976C424.533 427.322 423.866 429.069 422.533 430.216C421.199 431.362 419.186 431.936 416.493 431.936H406.653C405.906 431.936 405.319 431.709 404.893 431.256C404.466 430.829 404.253 430.229 404.253 429.456C404.253 428.682 404.466 428.069 404.893 427.616C405.319 427.162 405.906 426.936 406.653 426.936H416.213C417.733 426.936 418.839 426.642 419.533 426.056C420.226 425.496 420.573 424.602 420.573 423.376C420.573 421.936 420.119 420.776 419.213 419.896C418.306 419.042 417.093 418.616 415.573 418.616H406.653C405.906 418.616 405.319 418.389 404.893 417.936C404.466 417.482 404.253 416.869 404.253 416.096C404.253 415.322 404.466 414.709 404.893 414.256C405.319 413.829 405.906 413.616 406.653 413.616H422.133C422.826 413.616 423.386 413.842 423.813 414.296C424.239 414.749 424.453 415.362 424.453 416.136C424.453 416.829 424.239 417.389 423.813 417.816C423.413 418.269 422.879 418.496 422.213 418.496H421.133C422.226 419.162 423.066 420.056 423.653 421.176C424.239 422.296 424.533 423.562 424.533 424.976ZM407.973 447.174C407.893 448.507 407.293 449.174 406.173 449.174C405.533 449.174 405.039 448.907 404.693 448.374C404.373 447.867 404.239 447.134 404.293 446.174L404.373 445.094C404.693 440.614 407.093 438.374 411.573 438.374H420.293V436.374C420.293 435.654 420.453 435.094 420.773 434.694C421.093 434.321 421.559 434.134 422.173 434.134C422.786 434.134 423.253 434.321 423.573 434.694C423.893 435.094 424.053 435.654 424.053 436.374V438.374H427.733C428.453 438.374 429.026 438.601 429.453 439.054C429.879 439.507 430.093 440.121 430.093 440.894C430.093 441.641 429.879 442.241 429.453 442.694C429.026 443.147 428.453 443.374 427.733 443.374H424.053V446.774C424.053 447.494 423.893 448.041 423.573 448.414C423.253 448.814 422.786 449.014 422.173 449.014C421.559 449.014 421.093 448.814 420.773 448.414C420.453 448.041 420.293 447.494 420.293 446.774V443.374H411.213C409.239 443.374 408.186 444.281 408.053 446.094L407.973 447.174Z" fill="#666A5C"/>
<circle cx="196" cy="553" r="50" fill="#EDEEC9"/>
</g>
<defs>
<filter id="filter0_d" x="268" y="339" width="268.493" height="130" filterUnits="userSpaceOnUse" color-interpolation-filters="sRGB">
<feFlood flood-opacity="0" result="BackgroundImageFix"/>
<feColorMatrix in="SourceAlpha" type="matrix" values="0 0 0 0 0 0 0 0 0 0 0 0 0 0 0 0 0 0 127 0"/>
<feOffset dy="1"/>
<feGaussianBlur stdDeviation="3"/>
<feColorMatrix type="matrix" values="0 0 0 0 0 0 0 0 0 0 0 0 0 0 0 0 0 0 0.25 0"/>
<feBlend mode="normal" in2="BackgroundImageFix" result="effect1_dropShadow"/>
<feBlend mode="normal" in="SourceGraphic" in2="effect1_dropShadow" result="shape"/>
</filter>
<filter id="filter1_d" x="524.493" y="368" width="32" height="72" filterUnits="userSpaceOnUse" color-interpolation-filters="sRGB">
<feFlood flood-opacity="0" result="BackgroundImageFix"/>
<feColorMatrix in="SourceAlpha" type="matrix" values="0 0 0 0 0 0 0 0 0 0 0 0 0 0 0 0 0 0 127 0"/>
<feOffset dy="1"/>
<feGaussianBlur stdDeviation="3"/>
<feColorMatrix type="matrix" values="0 0 0 0 0 0 0 0 0 0 0 0 0 0 0 0 0 0 0.25 0"/>
<feBlend mode="normal" in2="BackgroundImageFix" result="effect1_dropShadow"/>
<feBlend mode="normal" in="SourceGraphic" in2="effect1_dropShadow" result="shape"/>
</filter>
<filter id="filter2_d" x="544.478" y="356" width="55.0143" height="97" filterUnits="userSpaceOnUse" color-interpolation-filters="sRGB">
<feFlood flood-opacity="0" result="BackgroundImageFix"/>
<feColorMatrix in="SourceAlpha" type="matrix" values="0 0 0 0 0 0 0 0 0 0 0 0 0 0 0 0 0 0 127 0"/>
<feOffset dy="1"/>
<feGaussianBlur stdDeviation="3"/>
<feColorMatrix type="matrix" values="0 0 0 0 0 0 0 0 0 0 0 0 0 0 0 0 0 0 0.25 0"/>
<feBlend mode="normal" in2="BackgroundImageFix" result="effect1_dropShadow"/>
<feBlend mode="normal" in="SourceGraphic" in2="effect1_dropShadow" result="shape"/>
</filter>
<clipPath id="clip0">
<rect width="800" height="800" fill="white"/>
</clipPath>
</defs>
</svg>
